<?xml version="1.0" standalone="no"?>
<!DOCTYPE svg PUBLIC "-//W3C//DTD SVG 20010904//EN"
 "http://www.w3.org/TR/2001/REC-SVG-20010904/DTD/svg10.dtd">
<svg version="1.0" xmlns="http://www.w3.org/2000/svg"
 width="512.000000pt" height="512.000000pt" viewBox="0 0 512.000000 512.000000"
 preserveAspectRatio="xMidYMid meet">

<g transform="translate(0.000000,512.000000) scale(0.100000,-0.100000)"
fill="#000000" stroke="none">
<path d="M1130 5040 c-650 -5 -708 -6 -745 -23 -56 -25 -120 -91 -145 -148
-20 -48 -20 -50 -20 -1821 l0 -1773 -55 -110 c-71 -141 -89 -210 -89 -350 0
-250 118 -470 327 -614 216 -148 506 -167 740 -50 34 18 74 40 88 50 26 18 88
19 1808 19 l1782 0 49 21 c67 29 134 102 154 169 14 47 16 283 16 2219 1 2428
7 2232 -73 2318 -22 24 -59 54 -82 66 -40 22 -44 22 -845 28 -904 7 -1865 7
-2910 -1z m2220 -450 l0 -330 -720 0 -720 0 0 330 0 330 720 0 720 0 0 -330z
m1460 320 c20 -5 51 -26 70 -45 l35 -36 3 -285 3 -284 -721 0 -720 0 0 330 0
330 648 0 c394 0 661 -4 682 -10z m-3030 -325 l0 -325 -720 0 -720 0 0 265 c0
284 2 295 52 342 12 12 34 26 48 32 16 6 271 10 683 10 l657 1 0 -325z m0
-2350 l0 -1895 -196 0 -196 0 16 22 c156 219 195 461 111 701 -78 225 -279
409 -515 473 -81 22 -271 25 -350 5 -81 -20 -166 -58 -243 -107 l-67 -44 0
1370 0 1370 720 0 720 0 0 -1895z m1570 0 l0 -1895 -725 0 -725 0 0 1895 0
1895 725 0 725 0 0 -1895z m1580 68 c0 -1802 0 -1827 -20 -1867 -11 -23 -36
-52 -57 -66 l-37 -25 -668 -3 -668 -3 0 1896 0 1895 725 0 725 0 0 -1827z
m-3930 -892 c192 -61 351 -221 413 -416 33 -105 31 -272 -5 -373 -71 -198
-221 -343 -418 -403 -95 -29 -245 -31 -334 -5 -215 64 -377 226 -442 442 -27
88 -25 238 5 334 66 218 244 384 466 436 81 19 231 12 315 -15z"/>
<path d="M2127 4649 c-39 -23 -41 -86 -3 -111 6 -4 237 -8 514 -8 489 0 503 1
522 20 27 27 25 56 -5 85 l-24 25 -493 0 c-326 -1 -499 -4 -511 -11z"/>
<path d="M3672 4644 c-22 -15 -30 -66 -14 -91 19 -30 70 -33 532 -33 462 0
513 3 532 33 15 23 8 66 -14 87 -21 20 -32 20 -518 20 -432 0 -498 -2 -518
-16z"/>
<path d="M550 4630 c-24 -24 -26 -63 -4 -84 14 -14 75 -16 524 -16 449 0 510
2 524 16 22 21 20 60 -4 84 -19 19 -33 20 -520 20 -487 0 -501 -1 -520 -20z"/>
<path d="M550 3940 c-19 -19 -20 -33 -20 -498 0 -451 1 -480 18 -495 17 -15
67 -17 520 -17 l501 0 20 26 c21 26 21 36 21 489 0 453 0 463 -21 489 l-20 26
-500 0 c-486 0 -500 -1 -519 -20z m930 -500 l0 -390 -415 0 -415 0 0 390 0
390 415 0 415 0 0 -390z"/>
<path d="M547 2732 c-15 -17 -17 -66 -17 -494 0 -447 1 -476 18 -491 17 -15
67 -17 520 -17 l501 0 21 27 c20 26 21 32 18 496 -3 451 -4 469 -22 483 -17
12 -104 14 -521 14 -474 0 -503 -1 -518 -18z m933 -492 l0 -390 -415 0 -415 0
0 390 0 390 415 0 415 0 0 -390z"/>
<path d="M2122 3944 l-22 -15 0 -483 c0 -455 1 -484 18 -499 17 -15 67 -17
519 -17 496 0 500 0 519 21 18 20 19 43 19 496 l0 475 -24 19 c-22 18 -46 19
-515 19 -429 0 -494 -2 -514 -16z m928 -504 l0 -390 -415 0 -415 0 0 390 0
390 415 0 415 0 0 -390z"/>
<path d="M2117 2732 c-15 -17 -17 -66 -17 -494 0 -447 1 -476 18 -491 17 -15
67 -17 519 -17 496 0 500 0 519 21 18 20 19 43 19 489 0 446 -1 469 -19 489
-19 21 -23 21 -521 21 -474 0 -503 -1 -518 -18z m933 -492 l0 -390 -415 0
-415 0 0 390 0 390 415 0 415 0 0 -390z"/>
<path d="M2117 1532 c-15 -17 -17 -66 -17 -500 l0 -481 22 -15 c20 -14 85 -16
515 -16 475 0 494 1 512 19 11 11 23 35 26 53 3 18 5 232 3 474 -3 418 -4 443
-22 463 -19 21 -24 21 -521 21 -474 0 -503 -1 -518 -18z m933 -502 l0 -390
-415 0 -415 0 0 390 0 390 415 0 415 0 0 -390z"/>
<path d="M3682 3944 l-22 -15 0 -483 c0 -455 1 -484 18 -499 17 -15 68 -17
524 -17 458 0 507 2 519 17 11 13 14 104 14 495 l0 480 -24 19 c-22 18 -46 19
-515 19 -429 0 -494 -2 -514 -16z m938 -504 l0 -390 -420 0 -420 0 0 390 0
390 420 0 420 0 0 -390z"/>
<path d="M3677 2732 c-15 -17 -17 -66 -17 -494 0 -447 1 -476 18 -491 17 -15
68 -17 524 -17 458 0 507 2 519 17 11 13 14 103 14 488 0 451 -1 474 -19 494
-19 21 -23 21 -521 21 -474 0 -503 -1 -518 -18z m933 -492 l0 -390 -410 0
-410 0 0 390 0 390 410 0 410 0 0 -390z"/>
<path d="M3677 1532 c-15 -17 -17 -66 -17 -500 l0 -481 22 -15 c20 -14 86 -16
519 -16 491 0 496 0 515 21 18 20 19 43 19 494 0 451 -1 474 -19 494 -19 21
-23 21 -521 21 -474 0 -503 -1 -518 -18z m943 -502 l0 -390 -420 0 -420 0 0
390 0 390 420 0 420 0 0 -390z"/>
<path d="M893 898 l-202 -202 -70 67 c-38 37 -74 67 -80 67 -25 0 -62 -26 -67
-47 -9 -35 2 -53 90 -143 92 -94 106 -103 138 -91 37 15 478 464 478 487 0 25
-40 64 -65 64 -11 0 -102 -83 -222 -202z"/>
</g>
</svg>
