<?xml version="1.0" standalone="no"?>
<!DOCTYPE svg PUBLIC "-//W3C//DTD SVG 20010904//EN"
 "http://www.w3.org/TR/2001/REC-SVG-20010904/DTD/svg10.dtd">
<svg version="1.0" xmlns="http://www.w3.org/2000/svg"
 width="512.000000pt" height="512.000000pt" viewBox="0 0 512.000000 512.000000"
 preserveAspectRatio="xMidYMid meet">

<g transform="translate(0.000000,512.000000) scale(0.100000,-0.100000)"
fill="#000000" stroke="none">
<path d="M485 5099 c-111 -35 -193 -115 -235 -225 -20 -54 -20 -67 -20 -2314
l0 -2259 21 -56 c41 -110 134 -196 248 -229 48 -14 162 -16 951 -16 888 0 896
0 918 20 26 24 29 76 8 106 -14 18 -38 19 -928 24 l-913 5 -48 28 c-33 19 -56
44 -77 80 l-30 52 0 1977 0 1977 321 3 321 3 19 24 c10 13 19 36 19 51 0 15
-9 38 -19 51 l-19 24 -321 3 -321 3 0 180 c0 196 7 228 58 282 15 16 45 39 67
50 l40 22 1142 5 c1055 5 1144 6 1159 22 24 23 20 75 -7 104 l-22 24 -1136 -1
c-1098 0 -1138 -1 -1196 -20z"/>
<path d="M3048 5110 c-9 -6 -22 -26 -28 -45 -10 -30 -9 -40 4 -60 9 -14 26
-27 39 -30 12 -2 123 -6 247 -7 208 -3 228 -5 265 -25 22 -11 52 -34 67 -50
51 -54 58 -86 58 -283 l0 -180 -1224 -2 c-1188 -3 -1225 -4 -1245 -22 -30 -27
-28 -80 4 -111 l24 -25 1221 0 1220 0 0 -1977 0 -1978 -30 -52 c-21 -36 -44
-61 -77 -80 l-48 -28 -483 -5 c-464 -5 -484 -6 -498 -24 -21 -30 -18 -82 8
-106 21 -20 33 -20 489 -20 439 0 471 1 530 20 114 36 194 112 241 229 l23 56
3 2195 c1 1320 -1 2226 -7 2273 -18 150 -103 268 -231 320 -51 20 -74 22 -305
24 -156 2 -256 -1 -267 -7z"/>
<path d="M4229 5092 c-34 -17 -65 -44 -84 -71 l-30 -43 -3 -2144 -2 -2144 166
-332 c91 -183 174 -338 183 -345 21 -16 61 -16 82 0 9 7 92 162 183 345 l166
332 -2 2144 -3 2144 -30 43 c-19 27 -50 54 -84 71 l-53 28 -218 0 -218 0 -53
-28z m492 -151 c17 -21 19 -41 19 -207 l0 -184 -240 0 -240 0 0 181 c0 188 5
213 43 229 12 5 107 8 210 7 185 -2 189 -2 208 -26z m19 -2536 l0 -1615 -240
0 -240 0 0 1615 0 1615 240 0 240 0 0 -1615z m-50 -1770 c0 -3 -29 -64 -65
-135 l-65 -130 -60 0 -60 0 -65 130 c-36 71 -65 132 -65 135 0 3 86 5 190 5
105 0 190 -2 190 -5z"/>
<path d="M920 3774 c-46 -20 -87 -59 -113 -109 -20 -37 -22 -55 -22 -220 0
-204 8 -233 82 -294 54 -45 88 -51 273 -51 189 0 220 9 282 78 50 55 58 92 58
261 0 139 1 144 26 173 34 41 30 93 -9 122 -23 17 -32 18 -56 9 -26 -9 -34 -7
-66 16 -37 26 -40 26 -229 28 -154 2 -198 0 -226 -13z m376 -145 c4 -6 -24
-42 -64 -82 l-71 -71 -45 42 c-56 52 -103 57 -135 16 -38 -49 -27 -72 81 -173
102 -93 111 -93 200 -1 l68 71 0 -66 c0 -57 -3 -69 -25 -90 -23 -24 -28 -25
-173 -25 -202 0 -192 -10 -192 200 0 202 -12 190 197 190 101 0 154 -4 159
-11z"/>
<path d="M1785 3495 c-14 -13 -25 -36 -25 -50 0 -14 11 -37 25 -50 l24 -25
710 0 c506 0 717 3 735 11 51 23 55 103 7 128 -13 8 -250 11 -736 11 l-716 0
-24 -25z"/>
<path d="M937 2934 c-56 -18 -120 -78 -139 -132 -9 -25 -13 -93 -13 -207 0
-159 2 -173 24 -218 27 -55 84 -102 144 -118 24 -6 106 -9 201 -7 181 4 217
14 274 83 44 54 52 96 52 271 0 138 -3 165 -21 204 -25 56 -53 86 -104 113
-36 19 -58 22 -205 24 -125 2 -177 -1 -213 -13z m352 -149 c16 -8 31 -25 35
-37 10 -40 7 -276 -5 -301 -18 -39 -50 -47 -193 -47 -120 0 -136 2 -160 21
l-26 20 0 158 c0 206 -7 199 193 200 94 1 136 -3 156 -14z"/>
<path d="M1780 2648 c-41 -45 -13 -111 52 -123 18 -3 345 -5 725 -3 l692 3 22
22 c27 27 29 75 4 103 -18 20 -29 20 -746 20 l-728 0 -21 -22z"/>
<path d="M935 2088 c-48 -17 -93 -55 -122 -106 -28 -47 -28 -48 -28 -227 0
-196 4 -214 64 -278 58 -63 82 -68 296 -65 l193 3 43 30 c27 19 54 50 71 84
27 52 28 57 28 215 0 88 -5 178 -11 199 -13 49 -73 115 -124 138 -34 16 -66
18 -210 18 -93 0 -183 -5 -200 -11z m370 -163 c24 -23 25 -29 25 -168 0 -131
-2 -147 -21 -171 l-20 -26 -153 0 c-208 0 -196 -12 -196 190 0 210 -10 200
192 200 145 0 150 -1 173 -25z"/>
<path d="M1785 1805 c-30 -30 -32 -64 -4 -99 l20 -26 724 0 c688 0 724 1 746
18 33 27 30 78 -5 109 l-27 23 -715 0 -715 0 -24 -25z"/>
<path d="M920 1234 c-46 -20 -87 -59 -113 -109 -20 -37 -22 -55 -22 -220 0
-167 2 -183 22 -222 27 -51 82 -96 132 -112 22 -6 108 -11 202 -11 137 0 171
3 204 19 51 23 111 89 124 138 6 21 11 111 11 199 0 157 -1 163 -27 214 -17
31 -45 65 -71 84 l-44 31 -191 2 c-155 2 -199 0 -227 -13z m389 -160 c19 -24
21 -40 21 -171 0 -139 -1 -145 -25 -168 -23 -24 -28 -25 -173 -25 -202 0 -192
-10 -192 200 0 202 -12 190 196 190 l153 0 20 -26z"/>
<path d="M1785 955 c-14 -13 -25 -36 -25 -50 0 -14 11 -37 25 -50 l24 -25 710
0 c506 0 717 3 735 11 51 23 55 103 7 128 -13 8 -250 11 -736 11 l-716 0 -24
-25z"/>
</g>
</svg>
