<?xml version="1.0" standalone="no"?>
<!DOCTYPE svg PUBLIC "-//W3C//DTD SVG 20010904//EN"
 "http://www.w3.org/TR/2001/REC-SVG-20010904/DTD/svg10.dtd">
<svg version="1.0" xmlns="http://www.w3.org/2000/svg"
 width="512.000000pt" height="512.000000pt" viewBox="0 0 512.000000 512.000000"
 preserveAspectRatio="xMidYMid meet">

<g transform="translate(0.000000,512.000000) scale(0.100000,-0.100000)"
fill="#000000" stroke="none">
<path d="M2223 5106 c-81 -26 -146 -86 -186 -173 -19 -43 -22 -68 -25 -238
l-4 -191 -114 -38 c-62 -21 -161 -62 -218 -90 l-105 -52 -127 127 c-147 147
-187 172 -289 177 -130 7 -148 -4 -407 -265 -204 -206 -227 -233 -243 -282
-23 -71 -17 -169 15 -231 13 -25 80 -103 149 -175 l127 -130 -52 -103 c-29
-57 -69 -155 -90 -217 l-38 -113 -196 -4 c-183 -3 -198 -5 -244 -27 -63 -31
-122 -90 -150 -150 -20 -43 -21 -64 -24 -349 -4 -359 0 -379 78 -465 81 -89
118 -100 345 -105 l191 -4 38 -114 c21 -62 62 -161 90 -218 l52 -105 -123
-123 c-148 -147 -183 -205 -183 -303 0 -122 9 -136 254 -383 243 -245 269
-264 376 -270 114 -7 161 18 319 172 l136 131 103 -51 c57 -29 155 -69 217
-90 l113 -38 4 -191 c3 -180 4 -193 29 -246 31 -65 84 -120 148 -151 45 -23
53 -23 371 -23 310 0 327 1 371 21 61 29 116 85 148 153 25 53 26 66 29 247
l4 191 71 22 c90 28 269 103 322 135 l40 24 135 -132 c159 -156 205 -181 320
-174 107 6 133 25 376 270 245 247 254 261 254 383 0 98 -35 156 -183 303
l-123 123 52 105 c28 57 69 156 90 218 l38 114 191 4 c227 5 264 16 345 105
78 86 82 106 78 465 -3 344 -6 356 -88 438 -76 76 -107 84 -330 88 l-196 4
-38 113 c-21 62 -61 160 -90 217 l-51 103 131 136 c145 150 174 200 174 303 0
112 -12 130 -259 379 -252 254 -271 267 -395 267 -99 0 -156 -35 -305 -184
l-124 -124 -61 33 c-68 38 -257 115 -328 134 l-46 13 -4 192 c-3 181 -4 194
-29 247 -32 68 -87 124 -148 153 -43 20 -64 21 -356 23 -237 2 -320 -1 -352
-11z m627 -199 c53 -26 60 -62 60 -299 0 -266 -6 -254 150 -299 131 -38 291
-105 392 -164 125 -73 122 -74 307 109 86 84 166 159 178 165 12 6 36 11 55
11 29 0 54 -21 235 -203 194 -193 203 -204 203 -241 0 -37 -9 -48 -165 -206
-160 -163 -165 -169 -165 -209 0 -31 11 -62 45 -121 63 -109 119 -241 160
-378 20 -66 43 -124 55 -136 19 -20 35 -21 260 -26 l240 -5 27 -28 28 -27 0
-290 c0 -288 0 -290 -23 -312 -22 -22 -29 -23 -262 -28 l-240 -5 -25 -26 c-18
-17 -36 -59 -56 -127 -39 -135 -98 -276 -159 -384 -78 -138 -80 -131 104 -317
84 -86 159 -166 165 -178 6 -12 11 -36 11 -55 0 -29 -21 -54 -203 -235 -193
-194 -204 -203 -241 -203 -37 0 -48 9 -206 165 -164 161 -169 165 -210 165
-31 0 -58 -10 -101 -35 -111 -68 -299 -145 -461 -190 -97 -26 -98 -30 -98
-284 0 -236 -7 -272 -60 -298 -35 -18 -545 -18 -580 0 -53 26 -60 62 -60 299
0 266 6 254 -147 299 -136 39 -277 98 -385 159 -143 81 -136 83 -338 -115
-158 -156 -169 -165 -206 -165 -37 0 -48 9 -241 203 -182 181 -203 206 -203
235 0 19 5 43 11 55 6 12 81 92 165 178 183 185 182 182 109 309 -63 109 -119
241 -160 378 -24 80 -42 124 -60 141 l-25 26 -240 5 c-233 5 -240 6 -262 28
-23 22 -23 24 -23 312 l0 290 28 27 27 28 240 5 c225 5 241 6 260 26 12 12 36
70 56 138 39 134 104 287 163 386 30 51 41 79 41 110 0 41 -5 47 -165 210
-156 158 -165 169 -165 206 0 37 9 48 203 241 181 182 206 203 235 203 19 0
43 -5 55 -11 12 -6 92 -81 178 -165 185 -183 182 -182 309 -109 109 64 242
119 378 160 170 50 162 35 162 303 0 237 7 273 60 299 35 18 545 18 580 0z"/>
<path d="M2360 3885 c-379 -60 -704 -268 -916 -586 -141 -212 -209 -424 -221
-689 -16 -373 123 -727 392 -995 244 -244 543 -376 890 -392 377 -17 729 121
1001 392 358 357 485 882 327 1360 -39 118 -87 220 -114 239 -38 27 -96 21
-130 -13 -39 -39 -38 -74 5 -170 165 -366 130 -782 -95 -1113 -55 -80 -176
-206 -258 -269 -86 -65 -264 -153 -374 -184 -398 -112 -832 5 -1119 303 -100
104 -154 181 -213 305 -177 369 -141 800 96 1142 59 85 198 223 284 282 324
219 734 260 1095 108 79 -33 114 -32 151 4 22 22 29 39 29 68 0 52 -22 80 -87
108 -224 99 -506 137 -743 100z"/>
<path d="M3383 3520 c-64 -39 -60 -134 7 -173 70 -42 150 7 150 90 0 36 -23
69 -60 88 -38 20 -59 19 -97 -5z"/>
<path d="M2435 3454 c-11 -2 -51 -11 -88 -20 -333 -76 -607 -363 -671 -703
-39 -204 0 -468 75 -506 46 -24 77 -19 116 20 40 40 40 41 9 180 -33 147 -13
294 61 445 38 79 60 109 132 181 72 72 102 94 181 132 152 74 292 93 448 61
214 -44 391 -181 486 -376 101 -207 101 -409 -1 -618 -38 -79 -60 -109 -132
-181 -72 -72 -102 -94 -181 -132 -151 -74 -298 -94 -445 -61 -135 30 -148 30
-186 -4 -44 -39 -47 -98 -8 -138 56 -55 306 -90 469 -65 181 28 350 114 486
246 125 122 203 257 250 431 26 97 26 331 0 428 -89 331 -322 567 -651 658
-68 19 -301 34 -350 22z"/>
<path d="M1927 2066 c-33 -31 -43 -68 -27 -105 17 -42 43 -62 87 -68 70 -9
129 64 104 129 -26 69 -112 92 -164 44z"/>
</g>
</svg>
