<?xml version="1.0" standalone="no"?>
<!DOCTYPE svg PUBLIC "-//W3C//DTD SVG 20010904//EN"
 "http://www.w3.org/TR/2001/REC-SVG-20010904/DTD/svg10.dtd">
<svg version="1.0" xmlns="http://www.w3.org/2000/svg"
 width="512.000000pt" height="512.000000pt" viewBox="0 0 512.000000 512.000000"
 preserveAspectRatio="xMidYMid meet">

<g transform="translate(0.000000,512.000000) scale(0.100000,-0.100000)"
fill="#000000" stroke="none">
<path d="M3301 4680 c-169 -35 -274 -227 -212 -389 36 -95 96 -150 205 -187
25 -9 48 -19 51 -24 2 -4 -4 -34 -15 -66 l-20 -59 -171 3 c-128 2 -169 6 -165
15 29 70 38 127 34 218 -4 85 -9 106 -40 171 -19 40 -55 96 -80 123 -114 125
-301 182 -463 140 -77 -20 -738 -336 -835 -399 -151 -98 -349 -327 -335 -386
10 -37 35 -60 66 -60 44 0 57 9 96 68 52 78 133 163 211 221 73 53 167 102
567 292 l260 123 80 1 c66 0 90 -5 137 -27 185 -87 245 -312 129 -487 -28 -42
-35 -46 -133 -76 -287 -88 -513 -227 -718 -442 -214 -224 -354 -491 -422 -803
-19 -91 -22 -134 -22 -320 0 -185 3 -229 22 -318 49 -223 130 -417 250 -597
130 -195 378 -419 586 -529 l69 -36 -436 0 c-406 0 -436 1 -441 18 -17 54
-546 2049 -546 2058 0 6 61 154 135 328 74 175 135 323 135 331 0 7 -9 24 -21
39 -24 31 -88 37 -110 10 -8 -10 -73 -157 -146 -328 l-132 -311 -418 -127
c-423 -130 -453 -142 -453 -187 0 -9 131 -509 291 -1111 202 -760 297 -1101
310 -1114 12 -13 30 -19 51 -19 18 1 216 58 441 127 l407 126 1338 0 c844 0
1363 4 1407 10 95 14 164 48 236 116 83 80 121 161 127 273 6 104 -9 172 -53
246 -19 32 -35 59 -35 60 0 2 64 5 143 7 136 3 145 4 210 35 274 130 329 491
106 697 l-60 56 40 48 c148 176 144 414 -10 577 -53 56 -143 109 -205 121
l-33 6 24 32 c62 81 92 207 74 316 -25 165 -150 303 -313 346 -34 9 -110 14
-226 14 l-175 0 -55 36 c-30 21 -56 38 -58 39 -7 5 40 135 49 135 6 0 36 -7
67 -16 71 -21 172 -15 227 14 53 27 110 85 136 139 26 53 35 144 20 200 -15
57 -68 132 -116 165 -67 47 -863 309 -975 322 -25 2 -65 1 -89 -4z m238 -191
c238 -71 685 -221 723 -242 72 -39 97 -137 53 -204 -23 -35 -74 -63 -116 -63
-39 0 -366 99 -694 210 -227 77 -256 94 -277 162 -15 52 2 107 47 147 49 43
96 41 264 -10z m151 -520 l188 -61 -14 -47 c-7 -25 -14 -49 -14 -54 0 -4 -17
0 -37 9 -93 40 -185 73 -264 94 l-86 22 15 49 c9 27 18 49 20 49 2 0 89 -28
192 -61z m-253 -188 c295 -65 524 -191 739 -405 262 -263 404 -567 433 -928
22 -280 -30 -542 -155 -789 -66 -129 -125 -214 -234 -338 -92 -104 -104 -138
-61 -173 47 -37 79 -25 163 62 42 44 79 80 83 80 3 0 17 -24 30 -53 65 -138 4
-303 -135 -366 -41 -19 -65 -21 -255 -21 l-210 0 79 43 c134 71 161 112 115
171 -26 33 -67 34 -117 2 -126 -79 -324 -157 -492 -193 -122 -26 -459 -26
-580 1 -293 63 -544 200 -755 411 -212 211 -352 473 -412 772 -27 134 -24 434
5 566 66 300 197 542 407 752 209 208 461 346 741 404 143 30 142 30 339 26
134 -3 204 -9 272 -24z m1039 -296 c167 -49 242 -271 141 -415 -13 -19 -17
-15 -65 68 -55 95 -135 205 -220 301 l-54 61 74 0 c41 0 97 -7 124 -15z m293
-720 c62 -31 113 -91 134 -156 35 -107 12 -198 -72 -279 l-56 -55 -2 35 c-12
168 -27 291 -47 378 -12 56 -19 102 -14 102 5 0 31 -11 57 -25z m52 -701 c161
-81 195 -307 67 -436 -58 -57 -100 -72 -216 -76 l-103 -4 34 69 c60 120 107
262 137 416 13 63 16 64 81 31z"/>
<path d="M2996 3590 c-288 -36 -531 -150 -733 -342 -234 -224 -367 -500 -392
-813 -25 -320 66 -630 258 -879 57 -74 186 -198 263 -255 136 -99 332 -183
505 -218 131 -26 366 -23 498 7 526 117 910 528 990 1060 81 528 -198 1064
-680 1307 -112 57 -235 99 -343 118 -108 19 -279 26 -366 15z m64 -249 c0
-109 11 -134 62 -147 22 -5 33 0 58 24 29 30 30 33 30 128 l0 97 61 -7 c82
-10 201 -40 279 -73 36 -14 66 -27 68 -29 2 -1 -6 -20 -17 -43 -12 -22 -21
-52 -21 -66 0 -36 33 -65 74 -65 29 0 40 7 62 38 16 20 31 41 35 46 16 19 183
-130 265 -236 l44 -56 -45 -26 c-70 -41 -74 -116 -8 -142 28 -12 36 -11 79 11
56 28 52 32 93 -81 34 -93 61 -215 61 -274 l0 -40 -100 0 c-87 0 -103 -3 -120
-20 -25 -25 -26 -71 -1 -101 18 -22 28 -24 123 -27 l104 -4 -8 -66 c-5 -37
-16 -94 -24 -127 -19 -74 -73 -215 -82 -215 -4 0 -20 9 -37 20 -60 39 -135 14
-135 -46 0 -39 17 -62 61 -84 l40 -21 -33 -46 c-58 -81 -240 -253 -267 -253
-4 0 -21 20 -39 45 -27 39 -36 45 -67 45 -69 0 -96 -65 -55 -132 11 -18 20
-36 20 -40 0 -23 -294 -108 -377 -108 l-33 0 0 94 c0 79 -3 97 -21 120 -26 33
-79 36 -109 6 -17 -17 -20 -33 -20 -120 l0 -100 -32 0 c-89 0 -378 85 -378
111 0 5 9 26 20 46 25 47 25 64 -1 97 -39 50 -123 24 -144 -45 -4 -11 -11 -19
-17 -19 -33 0 -238 196 -281 269 l-18 30 30 15 c44 23 73 65 66 96 -16 61 -73
78 -139 39 l-35 -20 -14 28 c-25 49 -66 180 -82 264 -24 128 -29 119 75 119
103 0 134 11 151 53 10 24 10 34 -2 56 -22 40 -55 51 -151 51 -68 0 -88 3 -88
14 0 44 34 196 61 272 47 134 40 128 99 97 57 -30 86 -24 116 21 24 37 11 72
-41 108 -51 36 -52 33 32 133 53 63 202 195 221 195 4 0 16 -17 27 -37 26 -50
65 -69 102 -51 15 7 34 25 42 40 14 25 14 31 -7 73 -12 25 -22 50 -22 55 0 24
286 107 378 109 l32 1 0 -99z"/>
<path d="M3035 2921 c-49 -22 -98 -76 -116 -128 -10 -28 -14 -102 -14 -278 0
-229 1 -242 22 -281 48 -89 151 -145 242 -129 59 10 125 57 158 112 l28 48 3
237 c2 152 -1 251 -8 278 -13 49 -69 114 -121 141 -49 25 -140 25 -194 0z"/>
</g>
</svg>
