<?xml version="1.0" encoding="iso-8859-1"?>
<!-- Uploaded to: SVG Repo, www.svgrepo.com, Generator: SVG Repo Mixer Tools -->
<svg height="800px" width="800px" version="1.1" id="Capa_1" xmlns="http://www.w3.org/2000/svg" xmlns:xlink="http://www.w3.org/1999/xlink" 
	 viewBox="0 0 511.999 511.999" xml:space="preserve">
<path style="fill:#6A56CF;" d="M431.987,339.53c-12.149,0-21.998,9.851-21.998,21.998v71.828c0,11.018-8.965,19.982-19.982,19.982
	H256c-12.149,0-21.998,9.849-21.998,21.998s9.849,21.998,21.998,21.998h134.007c35.278,0,63.979-28.701,63.979-63.979v-71.828
	C453.985,349.381,444.136,339.53,431.987,339.53z"/>
<path style="fill:#2D4175;" d="M331.344,438.672H256c-12.149,0-21.998,9.849-21.998,21.998v29.331
	c0,12.149,9.849,21.998,21.998,21.998h75.344c12.149,0,21.998-9.849,21.998-21.998V460.67
	C353.343,448.522,343.493,438.672,331.344,438.672z"/>
<path style="fill:#9E8CEC;" d="M80.425,207.543c-0.488,0-0.978-0.015-1.472-0.048c-12.123-0.801-21.3-11.276-20.501-23.4
	c3.306-50.026,25.336-96.466,62.035-130.764C157.282,18.939,205.407,0,256,0c50.592,0,98.718,18.939,135.51,53.327
	c36.699,34.298,58.733,80.74,62.04,130.764c0.802,12.123-8.376,22.598-20.498,23.4c-12.146,0.804-22.601-8.377-23.402-20.5
	C404.345,106.808,336.856,43.997,256,43.997c-80.859,0-148.347,62.813-153.645,142.998
	C101.586,198.623,91.913,207.543,80.425,207.543z"/>
<path style="fill:#5B699C;" d="M124.01,163.545H36.016c-12.149,0-21.998,9.849-21.998,21.997v175.987
	c0,12.15,9.849,21.998,21.998,21.998h87.993c12.149,0,21.998-9.848,21.998-21.998V185.541
	C146.008,173.393,136.159,163.545,124.01,163.545z"/>
<path style="fill:#6A56CF;" d="M453.55,184.091c-3.307-50.024-25.339-96.466-62.04-130.764C354.717,18.939,306.593,0,256.003,0
	v43.997c80.856,0.001,148.342,62.813,153.648,142.997c0.801,12.123,11.256,21.302,23.402,20.5
	C445.174,206.691,454.352,196.214,453.55,184.091z"/>
<path style="fill:#2D4175;" d="M475.984,163.545H387.99c-12.149,0-21.998,9.849-21.998,21.997v175.987
	c0,12.15,9.849,21.998,21.998,21.998h87.993c12.149,0,21.998-9.848,21.998-21.998V185.541
	C497.982,173.393,488.133,163.545,475.984,163.545z"/>
</svg>